<?xml version="1.0" encoding="utf-8"?>
<!-- Generator: Adobe Illustrator 25.4.1, SVG Export Plug-In . SVG Version: 6.00 Build 0)  -->
<svg version="1.1" id="Layer_1" xmlns="http://www.w3.org/2000/svg" xmlns:xlink="http://www.w3.org/1999/xlink" x="0px" y="0px"
	 viewBox="0 0 96 63.1" style="enable-background:new 0 0 96 63.1;" xml:space="preserve">
<g>
	<path d="M39.9,6.7l-3.6,19.5h18.1c3.3,0,5.8,3,5.2,6.3l-4.8,24.7c-0.5,2.7-2.8,4.6-5.6,4.6H29.4c-1.7,0-3.3-0.9-4.3-2.3l0,0
		c-0.9-1.4-2.4-2.2-4.1-2.2h-5.5V28.1c0-2.5,1.4-4.9,3.6-6.1l0.3-0.2c5.1-2.9,9.1-7.3,11.4-12.7l1.7-4c0.7-1.6,2.2-2.6,3.9-2.6h0.1
		C38.8,2.5,40.4,4.6,39.9,6.7z"/>
	<path d="M8.1,22.3H1v39.5h7.1c1.7,0,3.2-1.4,3.2-3.2V25.4C11.3,23.7,9.9,22.3,8.1,22.3z"/>
	<path d="M87.9,33.6H95V1h-7.1c-1.7,0-3.2,1.4-3.2,3.2v26.2C84.7,32.2,86.1,33.6,87.9,33.6z"/>
	<path d="M76.7,4.7c-1.2,0-2.4-0.3-3.1-1.1c-0.9-1.1-2.2-1.8-3.6-1.8H52.2c-2.2,0-4.2,1.3-4.6,3.4l-3.1,15.6
		c-0.2,0.9,0.5,1.7,1.4,1.7h10.9c4.7,0,8.2,4.3,7.3,8.9l-1,5l-1.9,10.5c-0.5,1.7,0.9,3.8,2.6,3.8h0.1c1.4,0,2.7-1.2,3.2-2.5l1.4-3.5
		c3.2-6.8,9.1-10.8,9.1-10.8c1.8-1,2.4-3,2.4-5.1v-24h-3.3V4.7z"/>
</g>
</svg>
